<?xml version="1.0" encoding="UTF-8" standalone="no"?>
<svg xmlns:svg="http://www.w3.org/2000/svg" xmlns="http://www.w3.org/2000/svg" viewBox="0 0 57.349499 64.00337" xml:space="preserve" version="1.1" width="57.349499" height="64.003372">
                                <g transform="matrix(1.25,0,0,-1.25,14.3375,40.279375)" style="fill:#ffffff">
                                   <path d="m 0,0 0,0 -10.702,-6.178 c 0.496,-0.858 1.212,-1.587 2.1,-2.1 L 0,-13.244 0,0 Z" style="fill:#ffffff;fill-opacity:1;fill-rule:nonzero;stroke:none"></path>
                                </g>
    <g transform="matrix(1.25,0,0,-1.25,1.2e-4,32.001625)" style="fill:#ffffff">
                                    <path d="m 0,0 0,-9.933 c 0,-1.025 0.273,-2.01 0.768,-2.868 L 11.47,-6.622 0,0 Z" style="fill:#ffffff;fill-opacity:1;fill-rule:nonzero;stroke:none"></path>
                                </g>
    <g transform="matrix(1.25,0,0,-1.25,14.3375,40.279375)" style="fill:#ffffff">
                                    <path d="M 0,0 0,13.244 -11.47,6.622 0,0 Z" style="fill:#ffffff;fill-opacity:1;fill-rule:nonzero;stroke:none"></path>
                                </g>
    <g transform="matrix(1.25,0,0,-1.25,14.3375,56.834625)" style="fill:#ffffff">
                                    <path d="M 0,0 0,0 8.602,-4.967 C 9.49,-5.479 10.48,-5.735 11.47,-5.735 l 0,12.357 L 0,0 Z" style="fill:#ffffff;fill-opacity:1;fill-rule:nonzero;stroke:none"></path>
                                </g>
    <g transform="matrix(1.25,0,0,-1.25,0.96062,16.000875)" style="fill:#ffffff">
                                    <path d="m 0,0 c -0.495,-0.857 -0.768,-1.843 -0.768,-2.867 l 0,-9.934 11.47,6.622 L 0,0 Z" style="fill:#ffffff;fill-opacity:1;fill-rule:nonzero;stroke:none"></path>
                                </g>
    <g transform="matrix(1.25,0,0,-1.25,43.012,56.834625)" style="fill:#ffffff">
                                    <path d="M 0,0 0,13.244 -11.47,6.622 0,0 Z" style="fill:#ffffff;fill-opacity:1;fill-rule:nonzero;stroke:none"></path>
                                </g>
    <g transform="matrix(1.25,0,0,-1.25,56.38887,48.002375)" style="fill:#ffffff">
                                    <path d="m 0,0 c 0.495,0.857 0.768,1.843 0.768,2.867 l 0,9.934 L -10.701,6.178 0,0 Z" style="fill:#ffffff;fill-opacity:1;fill-rule:nonzero;stroke:none"></path>
                                </g>
    <g transform="matrix(1.25,0,0,-1.25,43.012,40.279375)" style="fill:#ffffff">
                                    <path d="m 0,0 0,-13.244 8.602,4.966 c 0.888,0.513 1.604,1.242 2.099,2.1 L 0,0 Z" style="fill:#ffffff;fill-opacity:1;fill-rule:nonzero;stroke:none"></path>
                                </g>
    <g transform="matrix(1.25,0,0,-1.25,43.012,23.724)" style="fill:#ffffff">
                                    <path d="M 0,0 0,0 0,-13.244 11.47,-6.622 0,0 Z" style="fill:#ffffff;fill-opacity:1;fill-rule:nonzero;stroke:none"></path>
                                </g>
    <g transform="matrix(1.25,0,0,-1.25,28.67475,48.556875)" style="fill:#ffffff">
                                    <path d="m 0,0 0,-12.357 c 0.99,0 1.98,0.256 2.867,0.768 L 11.47,-6.622 0,0 Z" style="fill:#ffffff;fill-opacity:1;fill-rule:nonzero;stroke:none"></path>
                                </g>
    <g transform="matrix(1.25,0,0,-1.25,28.67475,15.446375)" style="fill:#ffffff">
                                    <path d="m 0,0 -11.47,6.622 0,-13.244 L 0,0 Z" style="fill:#ffffff;fill-opacity:1;fill-rule:nonzero;stroke:none"></path>
                                </g>
    <g transform="matrix(1.25,0,0,-1.25,28.67475,15.446375)" style="fill:#ffffff">
                                    <path d="m 0,0 11.47,-6.622 0,13.244 L 0,0 Z" style="fill:#ffffff;fill-opacity:1;fill-rule:nonzero;stroke:none"></path>
                                </g>
    <g transform="matrix(1.25,0,0,-1.25,0.96062,16.000875)" style="fill:#ffffff">
                                    <path d="m 0,0 10.702,-6.179 0,13.245 L 2.099,2.099 C 1.212,1.587 0.495,0.857 0,0" style="fill:#ffffff;fill-opacity:1;fill-rule:nonzero;stroke:none"></path>
                                </g>
    <g transform="matrix(1.25,0,0,-1.25,43.012,23.724)" style="fill:#ffffff">
                                    <path d="m 0,0 11.47,-6.622 0,9.933 c 0,1.024 -0.273,2.01 -0.769,2.867 L 0,0 Z" style="fill:#ffffff;fill-opacity:1;fill-rule:nonzero;stroke:none"></path>
                                </g>
    <g transform="matrix(1.25,0,0,-1.25,43.012,23.724)" style="fill:#ffffff">
                                    <path d="M 0,0 10.701,6.178 C 10.206,7.036 9.49,7.765 8.602,8.278 L 0,13.244 0,0 Z" style="fill:#ffffff;fill-opacity:1;fill-rule:nonzero;stroke:none"></path>
                                </g>
    <g transform="matrix(1.25,0,0,-1.25,14.3375,40.279375)" style="fill:#ffffff">
                                    <path d="m 0,0 11.47,-6.622 0,9.933 c 0,1.025 -0.273,2.01 -0.769,2.868 L 0,0 Z" style="fill:#ffffff;fill-opacity:1;fill-rule:nonzero;stroke:none"></path>
                                </g>
    <g transform="matrix(1.25,0,0,-1.25,14.3375,40.279375)" style="fill:#ffffff">
                                    <path d="M 0,0 10.701,6.179 C 10.206,7.036 9.49,7.765 8.602,8.278 L 0,13.244 0,0 Z" style="fill:#ffffff;fill-opacity:1;fill-rule:nonzero;stroke:none"></path>
                                </g>
    <g transform="matrix(1.25,0,0,-1.25,43.012,7.16875)" style="fill:#ffffff">
                                    <path d="M 0,0 -8.603,4.967 C -9.49,5.479 -10.48,5.735 -11.47,5.735 l 0,-12.357 L 0,0 Z" style="fill:#ffffff;fill-opacity:1;fill-rule:nonzero;stroke:none"></path>
                                </g>
    <g transform="matrix(1.25,0,0,-1.25,28.67475,15.446375)" style="fill:#ffffff">
                                    <path d="m 0,0 0,12.357 c -0.99,0 -1.98,-0.256 -2.867,-0.768 L -11.47,6.622 0,0 Z" style="fill:#ffffff;fill-opacity:1;fill-rule:nonzero;stroke:none"></path>
                                </g>
    <g transform="matrix(1.25,0,0,-1.25,14.3375,56.834625)" style="fill:#ffffff">
                                    <path d="M 0,0 11.47,6.622 0,13.244 0,0 Z" style="fill:#ffffff;fill-opacity:1;fill-rule:nonzero;stroke:none"></path>
                                </g>
                            </svg>