<?xml version="1.0" encoding="utf-8"?>
<!-- Generator: Adobe Illustrator 22.0.1, SVG Export Plug-In . SVG Version: 6.00 Build 0)  -->
<svg version="1.1" id="Calque_1" xmlns="http://www.w3.org/2000/svg" xmlns:xlink="http://www.w3.org/1999/xlink" x="0px" y="0px"
	 viewBox="0 0 270.967 136.398" enable-background="new 0 0 270.967 136.398" xml:space="preserve">
<path fill="#FFFFFF" d="M229.568,6.561c-1.557,0-3.492,0.522-4.123,0.684c-1.5,0.387-2.205,0.441-3.535,0.522
	c-0.805,0.05-1.61,0.22-1.727,1.252c-0.18,1.564-4.602,5.275-4.881,9.338c-0.204,2.972,1.344,5.199,1.533,6.587
	c0.113,0.832,0.496,0.957,0.584,0.398c0.052-0.317,0.602-0.166,1,1.168c0.314,0.605,0.562-0.264,1.042,0.287
	c2.507,2.877,5.796,5.076,10.106,5.076c6.992,0,12.657-5.666,12.657-12.656C242.225,12.226,236.561,6.561,229.568,6.561z"/>
<path fill="#FFFFFF" d="M204.5,10.357c0.136-0.364-0.059-2.533-0.441-3.207c-0.385-0.674-0.986-1.576-1.373-2.016
	c-1.88-2.492-3.592-6.291-8.106-4.797c-0.171,0.063-0.536,0.199-0.943,0.141c-0.655-0.094-1.322-0.158-2.004-0.158
	c-6.036,0-11.084,4.225-12.349,9.881c-0.04,0.171-0.169,0.613-0.23,1.006c-0.769,4.785,1.1,9.372,2.752,11.701
	c1.65,2.33,4.939,2.992,6.42,2.649c0.441-0.1,1.221-0.1,1.625-0.052c0.404,0.051,1.178,0.125,1.782,0.125
	c6.989,0,12.656-5.666,12.656-12.655c0-0.659-0.065-1.247-0.106-1.591C204.109,10.789,204.363,10.72,204.5,10.357z"/>
<path fill="#FFFFFF" d="M204.498,93.26c-0.758-0.289-0.758-0.012-0.185,0.416c0.574,0.427,0.675,0.815-0.535,0.567
	c-12.175-2.497-22.178-12.685-23.995-17.364c-0.137-0.354-0.496-0.417-0.476-0.039c0.026,0.493-0.222,0.664-0.532,0.037
	c-8.764-17.754-1.48-28.199,7.084-40.327c2.25-3.183,5.662-6.161,9.054-5.593c4.952,0.828,7.421,2.184,11.37,4.83
	c5.098,3.414,3.913,7.121-0.116,12.317c-3.48,4.487-11.722,14.675-5.708,22.559c10.443,13.69,39.776,22.895,49.959,28.39
	c0.773,0.417,0.86,0.816-0.054,0.426c-1.347-0.581-2.601-1.087-4.349-1.687c-0.516-0.176-0.729,0.025-0.341,0.33
	c1.256,0.992,6.306,2.919,7.439,3.354c0.68,0.262,0.536,0.585-0.261,0.425c-1.165-0.231-2.786-0.646-3.961-1.06
	c-0.541-0.19-0.928,0.061-0.269,0.56c1.092,0.906,3.714,1.943,4.99,2.514c1.889,0.846,2.354,1.592-0.672,1.078
	c-2.382-0.401-6.504-1.918-7.342-2.031c-0.261-0.036-0.57,0.108-0.15,0.479c0.688,0.602,2.303,1.294,3.311,1.854
	c0.553,0.306,0.314,0.485-0.318,0.345c-2.601-0.577-5.725-1.789-9.277-3.398c-0.525-0.235-0.861-0.028-0.412,0.261
	c3.188,2.039,6.873,3.448,7.533,3.805c0.49,0.264,0.42,0.62-0.285,0.502c-2.638-0.44-9.95-3.773-13.114-4.556
	c-0.435-0.124-0.689,0.147-0.169,0.43c0.52,0.283,1.342,0.741,1.578,0.857c0.52,0.253,0.341,0.539-0.334,0.322
	C227.674,101.84,220.961,99.534,204.498,93.26z"/>
<path fill="#FFFFFF" d="M223.467,105.072c-0.662,0.448-0.785,0.198-0.553-0.188c0.201-0.332,0.164-0.665-0.474-0.293
	c-0.317,0.186-4.875,3.247-7.107,4.148c-0.513,0.207-1.265,0.376-0.533-0.619c0.561-0.765,1.785-1.828,2.425-2.477
	c0.562-0.572,0.359-0.853-0.524-0.541c-0.885,0.31-4.598,2.566-5.244,2.865c-0.65,0.298-0.701,0.071-0.39-0.563
	c0.422-0.86,4.095-4.344,4.673-5.477c0.418-0.55,0.057-0.758-0.584-0.322c-0.564,0.38-1.559,0.904-2.194,1.223
	c-0.667,0.334-0.993,0.069-0.348-0.356c0.294-0.194,1.1-0.792,1.403-1.134c0.197-0.223,0.15-0.471-0.25-0.291
	c-0.398,0.177-0.444,0.236-0.668,0.356c-0.381,0.219-0.498,0.061-0.066-0.329c6.854-6.162,20.747-16.947,31.232-31.008
	c0.376-0.619,0.334-1.04-0.307-0.585c-0.681,0.481-1.385,0.455-0.187-0.902c8.581-9.714,12.847-20.878-1.115-15.232
	c-5.136,2.077-9.141,5.923-12.789,7.935c-3.842,2.118-5.475,2.354-8.116,0.039c-2.475-2.17-5.809-7.691-6.11-11.576
	c-0.082-1.062-0.307-3.267,2.521-5.748c27.291-23.951,76.454-5.211,39.605,37.492c-0.431,0.499-0.824,0.306-0.289-0.568
	c1.075-1.759,1.841-3.361,2.451-5.11c0.289-0.722-0.085-0.889-0.477-0.289C255.165,82.067,242.064,92.382,223.467,105.072z"/>
<g>
	<path fill="#FFFFFF" d="M19.144,111.667c-2.085-0.817-3.229-1.186-5.355-1.186c-2.289,0-4.987,0.818-4.987,3.802
		c0,5.479,12.264,4.211,12.264,13.613c0,6.091-4.701,8.502-10.424,8.502c-2.003,0-3.965-0.572-5.845-1.186l0.409-3.802
		c1.39,0.573,3.842,1.391,5.927,1.391c2.33,0,5.6-1.309,5.6-4.66c0-6.377-12.263-4.619-12.263-13.49
		c0-5.068,4.006-7.767,9.157-7.767c1.88,0,4.129,0.327,6.091,1.021L19.144,111.667z"/>
	<path fill="#FFFFFF" d="M27.242,116.532c1.921-1.145,4.21-1.963,6.867-1.963c5.968,0,8.38,2.943,8.38,8.626v8.625
		c0,2.371,0.082,3.475,0.164,4.088h-3.598v-2.698h-0.082c-0.899,1.268-2.943,3.189-6.459,3.189c-4.497,0-7.644-1.962-7.644-6.499
		c0-5.232,5.723-6.868,9.688-6.868c1.513,0,2.576,0,4.088,0.082c0-3.598-1.308-5.437-5.15-5.437c-2.166,0-4.496,0.817-6.05,2.125
		L27.242,116.532z M38.647,125.975c-0.817,0-1.635-0.082-2.453-0.082c-2.085,0-7.235,0.327-7.235,4.007
		c0,2.207,2.126,3.393,3.883,3.393c3.802,0,5.805-2.371,5.805-5.477V125.975z"/>
	<path fill="#FFFFFF" d="M53.572,110.4h-4.333v-4.333h4.333V110.4z M49.484,115.061h3.843v20.848h-3.843V115.061z"/>
	<path fill="#FFFFFF" d="M60.359,115.061h3.72v3.311h0.081c1.145-2.371,3.924-3.802,6.827-3.802c5.396,0,7.808,3.353,7.808,8.953
		v12.386h-3.843v-10.792c0-4.864-1.063-7.235-4.415-7.439c-4.374,0-6.336,3.516-6.336,8.584v9.647h-3.843V115.061z"/>
	<path fill="#FFFFFF" d="M96.418,118.167H90.9v11.405c0,2.412,1.472,3.72,3.23,3.72c1.185,0,2.044-0.368,2.616-0.735v3.27
		c-0.858,0.245-2.044,0.572-3.27,0.572c-3.965,0-6.418-1.88-6.418-6.05v-12.182h-4.701v-3.106h4.701v-4.824l3.842-1.226v6.05h5.519
		V118.167z"/>
	<path fill="#FFFFFF" d="M99.528,123.358h10.506v3.106H99.528V123.358z"/>
	<path fill="#FFFFFF" d="M115.432,107.375h15.983v3.598H119.52v8.339h10.833v3.598H119.52v9.401h11.896v3.598h-15.983V107.375z
		 M123.893,99.404h4.456l-5.355,5.886h-2.739L123.893,99.404z"/>
	<path fill="#FFFFFF" d="M148.67,118.167h-5.519v11.405c0,2.412,1.472,3.72,3.23,3.72c1.186,0,2.044-0.368,2.616-0.735v3.27
		c-0.858,0.245-2.044,0.572-3.27,0.572c-3.965,0-6.418-1.88-6.418-6.05v-12.182h-4.701v-3.106h4.701v-4.824l3.842-1.226v6.05h5.519
		V118.167z"/>
	<path fill="#FFFFFF" d="M158.074,110.4h-4.332v-4.333h4.332V110.4z M153.986,115.061h3.844v20.848h-3.844V115.061z"/>
	<path fill="#FFFFFF" d="M180.846,135.05c-1.471,0.531-3.147,1.349-6.581,1.349c-7.399,0-10.792-4.496-10.792-11.282
		c0-6.173,3.883-10.547,9.77-10.547c6.949,0,9.198,5.069,9.198,11.773h-14.88c0,4.129,3.229,6.949,6.867,6.949
		c2.535,0,5.479-1.308,6.418-2.085V135.05z M178.352,123.481c0-3.188-1.88-5.805-5.192-5.805c-3.76,0-5.314,3.106-5.6,5.805H178.352
		z"/>
	<path fill="#FFFFFF" d="M187.595,115.061h3.72v3.311h0.082c1.145-2.371,3.924-3.802,6.826-3.802c5.396,0,7.809,3.353,7.809,8.953
		v12.386h-3.843v-10.792c0-4.864-1.063-7.235-4.415-7.439c-4.373,0-6.336,3.516-6.336,8.584v9.647h-3.843V115.061z"/>
	<path fill="#FFFFFF" d="M212.576,115.061h3.72v3.311h0.081c1.145-2.371,3.925-3.802,6.827-3.802c5.395,0,7.808,3.353,7.808,8.953
		v12.386h-3.842v-10.792c0-4.864-1.063-7.235-4.416-7.439c-4.373,0-6.336,3.516-6.336,8.584v9.647h-3.842V115.061z"/>
	<path fill="#FFFFFF" d="M253.54,135.05c-1.472,0.531-3.148,1.349-6.581,1.349c-7.398,0-10.792-4.496-10.792-11.282
		c0-6.173,3.884-10.547,9.771-10.547c6.949,0,9.197,5.069,9.197,11.773h-14.88c0,4.129,3.23,6.949,6.868,6.949
		c2.533,0,5.477-1.308,6.417-2.085V135.05z M251.047,123.481c0-3.188-1.881-5.805-5.191-5.805c-3.762,0-5.314,3.106-5.601,5.805
		H251.047z"/>
</g>
<g>
	<g>
		<path fill="#FFFFFF" d="M48.032,43.334c-4.082-2.413-8.625-3.617-13.354-3.617c-14.927,0-24.849,10.756-24.849,25.312
			c0,15.207,10.941,25.313,24.386,25.313c4.637,0,10.85-1.205,14.095-3.151l0.556,8.993c-4.915,2.039-10.941,2.318-14.744,2.318
			C13.63,98.503,0,85.337,0,64.752c0-19.937,14.465-33.195,34.214-33.195c5.007,0,9.922,0.742,14.558,2.781L48.032,43.334z"/>
		<path fill="#FFFFFF" d="M58.265,32.669h9.272v27.075h30.97V32.669h9.272v64.722h-9.272V67.904h-30.97v29.486h-9.272V32.669z"/>
		<path fill="#FFFFFF" d="M167.063,70.593c0,18.175-9.18,27.91-25.128,27.91c-15.948,0-25.127-9.735-25.127-27.91V32.669h9.271
			v36.719c0,12.424,3.895,20.955,15.856,20.955c11.961,0,15.856-8.531,15.856-20.955V32.669h9.271V70.593z"/>
	</g>
</g>
<g>
</g>
<g>
</g>
<g>
</g>
<g>
</g>
<g>
</g>
<g>
</g>
</svg>
